HIERARCHY
ROOT root
{
	OFFSET 0.00 0.00 0.00
	CHANNELS 6 Xposition Yposition Zposition Xrotation Yrotation Zrotation
	End Site
	{
		OFFSET 3.93700 0.00000 0.00000
	}
}
MOTION
Frames: 220
Frame Time: 0.008333
 -3.2194 1.9803 -25.2700 89.9833 -0.2989 -70.1060
 -3.2198 1.9796 -25.2706 89.9843 -0.3070 -70.1072
 -3.2187 1.9800 -25.2704 89.9870 -0.3021 -70.1123
 -3.2235 1.9802 -25.2718 89.9932 -0.3174 -70.0972
 -3.2206 1.9812 -25.2702 89.9718 -0.3057 -70.1030
 -3.2202 1.9807 -25.2712 89.9869 -0.3028 -70.0990
 -3.2204 1.9803 -25.2703 89.9798 -0.2911 -70.0995
 -3.2201 1.9799 -25.2710 89.9929 -0.3147 -70.1045
 -3.2202 1.9803 -25.2713 89.9902 -0.3258 -70.1059
 -3.2245 1.9810 -25.2728 89.9880 -0.3179 -70.0866
 -3.2197 1.9810 -25.2704 89.9785 -0.2965 -70.1086
 -3.2200 1.9790 -25.2701 89.9816 -0.2771 -70.0971
 -3.2203 1.9790 -25.2709 89.9833 -0.2845 -70.0937
 -3.2198 1.9782 -25.2704 89.9828 -0.2695 -70.0906
 -3.2195 1.9784 -25.2711 89.9820 -0.2683 -70.0951
 -3.2203 1.9776 -25.2717 89.9865 -0.2680 -70.0951
 -3.2206 1.9785 -25.2716 89.9802 -0.2703 -70.0920
 -3.2199 1.9800 -25.2701 89.9653 -0.2797 -70.1031
 -3.2198 1.9804 -25.2706 89.9748 -0.2810 -70.0934
 -3.2204 1.9786 -25.2712 89.9861 -0.2796 -70.0937
 -3.2204 1.9799 -25.2714 89.9708 -0.2835 -70.0911
 -3.2201 1.9791 -25.2720 89.9783 -0.2843 -70.0925
 -3.2199 1.9781 -25.2711 89.9849 -0.2787 -70.1001
 -3.2201 1.9783 -25.2715 89.9784 -0.2729 -70.0886
 -3.2205 1.9792 -25.2714 89.9736 -0.2780 -70.0948
 -3.2211 1.9798 -25.2722 89.9708 -0.2842 -70.0837
 -3.2200 1.9796 -25.2707 89.9846 -0.2818 -70.0966
 -3.2202 1.9787 -25.2709 89.9829 -0.2666 -70.1007
 -3.2204 1.9803 -25.2712 89.9726 -0.2871 -70.0923
 -3.2196 1.9792 -25.2703 89.9959 -0.2778 -70.1015
 -3.2207 1.9797 -25.2716 89.9796 -0.2784 -70.0873
 -3.2201 1.9805 -25.2715 89.9747 -0.2891 -70.1001
 -3.2199 1.9794 -25.2710 89.9608 -0.2734 -70.0957
 -3.2203 1.9801 -25.2706 89.9744 -0.2820 -70.0933
 -3.2194 1.9808 -25.2708 89.9667 -0.2820 -70.0992
 -3.2195 1.9795 -25.2708 89.9681 -0.2772 -70.1016
 -3.2198 1.9781 -25.2714 89.9810 -0.2721 -70.1012
 -3.2200 1.9791 -25.2709 89.9847 -0.2842 -70.0934
 -3.2184 1.9781 -25.2695 89.9821 -0.2665 -70.0885
 -3.2192 1.9796 -25.2699 89.9831 -0.2826 -70.0891
 -3.2195 1.9790 -25.2709 89.9837 -0.2819 -70.0976
 -3.2195 1.9782 -25.2707 89.9764 -0.2624 -70.1018
 -3.2198 1.9795 -25.2704 89.9773 -0.2854 -70.0987
 -3.2194 1.9780 -25.2705 89.9861 -0.2721 -70.1002
 -3.2193 1.9789 -25.2710 89.9842 -0.2826 -70.0944
 -3.2203 1.9793 -25.2709 89.9746 -0.2771 -70.0974
 -3.2200 1.9795 -25.2710 89.9722 -0.2823 -70.0993
 -3.2192 1.9802 -25.2704 89.9624 -0.2871 -70.0995
 -3.2200 1.9788 -25.2706 89.9811 -0.2726 -70.1066
 -3.2200 1.9791 -25.2705 89.9858 -0.2750 -70.0990
 -3.2195 1.9791 -25.2709 89.9957 -0.2869 -70.0947
 -3.2192 1.9781 -25.2704 89.9878 -0.2730 -70.1023
 -3.2203 1.9803 -25.2719 89.9643 -0.2893 -70.1009
 -3.2201 1.9782 -25.2716 89.9863 -0.2784 -70.0930
 -3.2202 1.9782 -25.2716 89.9877 -0.2696 -70.0954
 -3.2199 1.9798 -25.2712 89.9740 -0.2842 -70.0944
 -3.2198 1.9807 -25.2706 89.9667 -0.2839 -70.0998
 -3.2197 1.9801 -25.2703 89.9683 -0.2834 -70.1055
 -3.2196 1.9790 -25.2707 89.9785 -0.2761 -70.0993
 -3.2195 1.9795 -25.2702 89.9813 -0.2837 -70.1008
 -3.2200 1.9795 -25.2705 89.9767 -0.2782 -70.0993
 -3.2200 1.9776 -25.2705 89.9835 -0.2674 -70.0978
 -3.2199 1.9791 -25.2707 89.9810 -0.2771 -70.1000
 -3.2197 1.9796 -25.2706 89.9757 -0.2772 -70.1009
 -3.2199 1.9783 -25.2714 89.9853 -0.2780 -70.0951
 -3.2187 1.9780 -25.2706 89.9905 -0.2779 -70.1064
 -3.2191 1.9783 -25.2704 89.9913 -0.2708 -70.1022
 -3.2195 1.9795 -25.2708 89.9764 -0.2769 -70.1022
 -3.2191 1.9791 -25.2702 89.9806 -0.2831 -70.1013
 -3.2199 1.9801 -25.2712 89.9809 -0.2899 -70.0963
 -3.2190 1.9789 -25.2701 89.9697 -0.2758 -70.1085
 -3.2190 1.9794 -25.2704 89.9730 -0.2805 -70.1048
 -3.2192 1.9781 -25.2703 89.9761 -0.2821 -70.1039
 -3.2190 1.9798 -25.2699 89.9768 -0.2845 -70.1034
 -3.2186 1.9797 -25.2701 89.9708 -0.2812 -70.1063
 -3.2179 1.9815 -25.2689 89.9544 -0.2913 -70.1045
 -3.2185 1.9799 -25.2691 89.9829 -0.2840 -70.1098
 -3.2179 1.9804 -25.2687 89.9668 -0.2843 -70.1114
 -3.2185 1.9784 -25.2699 89.9806 -0.2814 -70.1069
 -3.2170 1.9790 -25.2679 89.9729 -0.2820 -70.1167
 -3.2140 1.9804 -25.2646 89.9641 -0.2843 -70.1351
 -3.2161 1.9750 -25.2687 90.0070 -0.2711 -70.1287
 -3.2167 1.9721 -25.2707 90.0111 -0.2588 -70.1103
 -3.2169 1.9738 -25.2701 90.0106 -0.2658 -70.1145
 -3.2171 1.9741 -25.2701 90.0058 -0.2785 -70.1089
 -3.2170 1.9743 -25.2701 89.9964 -0.2680 -70.1085
 -3.2169 1.9734 -25.2690 90.0147 -0.2687 -70.1167
 -3.2180 1.9718 -25.2705 90.0187 -0.2531 -70.1087
 -3.2184 1.9743 -25.2704 90.0030 -0.2716 -70.1076
 -3.2181 1.9735 -25.2700 90.0047 -0.2592 -70.1014
 -3.2207 1.9722 -25.2718 90.0332 -0.2593 -70.0898
 -3.2208 1.9672 -25.2750 90.0604 -0.2488 -70.0789
 -3.2156 1.9730 -25.2695 90.0354 -0.2648 -70.1116
 -3.2144 1.9746 -25.2670 90.0328 -0.2614 -70.1133
 -3.2166 1.9724 -25.2704 90.0077 -0.2613 -70.1127
 -3.2164 1.9736 -25.2705 89.9910 -0.2768 -70.1194
 -3.2169 1.9720 -25.2702 90.0133 -0.2614 -70.1110
 -3.2173 1.9715 -25.2703 90.0167 -0.2583 -70.1149
 -3.2168 1.9732 -25.2703 90.0001 -0.2649 -70.1129
 -3.2171 1.9719 -25.2702 90.0138 -0.2617 -70.1168
 -3.2163 1.9707 -25.2704 90.0055 -0.2488 -70.1180
 -3.2174 1.9704 -25.2712 90.0120 -0.2481 -70.1044
 -3.2163 1.9728 -25.2691 90.0147 -0.2662 -70.1208
 -3.2167 1.9720 -25.2692 90.0038 -0.2651 -70.1116
 -3.2157 1.9721 -25.2694 90.0121 -0.2630 -70.1250
 -3.2162 1.9715 -25.2701 90.0220 -0.2580 -70.1129
 -3.2165 1.9715 -25.2709 90.0152 -0.2605 -70.1130
 -3.2177 1.9704 -25.2713 90.0161 -0.2521 -70.1127
 -3.2174 1.9724 -25.2703 90.0181 -0.2676 -70.1123
 -3.2165 1.9712 -25.2704 90.0231 -0.2557 -70.1125
 -3.2175 1.9729 -25.2715 90.0037 -0.2626 -70.1075
 -3.2167 1.9733 -25.2696 90.0034 -0.2671 -70.1164
 -3.2170 1.9718 -25.2705 90.0116 -0.2631 -70.1164
 -3.2169 1.9714 -25.2710 90.0119 -0.2571 -70.1077
 -3.2176 1.9732 -25.2725 90.0003 -0.2630 -70.0990
 -3.2170 1.9739 -25.2708 90.0005 -0.2673 -70.1147
 -3.2171 1.9730 -25.2712 90.0074 -0.2643 -70.1050
 -3.2171 1.9726 -25.2724 89.9669 -0.2676 -70.1138
 -3.2168 1.9735 -25.2700 90.0166 -0.2742 -70.1303
 -3.2180 1.9728 -25.2699 90.0167 -0.2638 -70.1264
 -3.2174 1.9714 -25.2697 90.0149 -0.2577 -70.1264
 -3.2173 1.9712 -25.2701 90.0258 -0.2596 -70.1275
 -3.2169 1.9720 -25.2693 90.0102 -0.2575 -70.1307
 -3.2171 1.9737 -25.2702 90.0059 -0.2709 -70.1299
 -3.2172 1.9717 -25.2696 90.0172 -0.2551 -70.1281
 -3.2175 1.9733 -25.2700 90.0085 -0.2664 -70.1235
 -3.2173 1.9718 -25.2702 90.0136 -0.2571 -70.1282
 -3.2177 1.9712 -25.2704 90.0229 -0.2555 -70.1284
 -3.2172 1.9719 -25.2690 90.0161 -0.2573 -70.1326
 -3.2170 1.9741 -25.2694 90.0036 -0.2706 -70.1256
 -3.2174 1.9719 -25.2700 90.0107 -0.2627 -70.1192
 -3.2177 1.9718 -25.2703 90.0226 -0.2501 -70.1197
 -3.2206 1.9752 -25.2715 90.0034 -0.2784 -70.1063
 -3.2172 1.9738 -25.2695 90.0004 -0.2763 -70.1306
 -3.2166 1.9732 -25.2694 90.0068 -0.2674 -70.1303
 -3.2170 1.9715 -25.2698 90.0141 -0.2601 -70.1273
 -3.2182 1.9720 -25.2677 90.0646 -0.2688 -70.1903
 -3.2181 1.9724 -25.2666 90.0792 -0.2638 -70.1840
 -3.2176 1.9718 -25.2659 90.0742 -0.2653 -70.1840
 -3.2174 1.9718 -25.2669 90.0837 -0.2661 -70.1739
 -3.2183 1.9710 -25.2670 90.0937 -0.2541 -70.1706
 -3.2184 1.9709 -25.2671 90.0872 -0.2544 -70.1687
 -3.2179 1.9725 -25.2671 90.0776 -0.2652 -70.1767
 -3.2180 1.9707 -25.2671 90.0838 -0.2526 -70.1710
 -3.2180 1.9704 -25.2667 90.0809 -0.2453 -70.1764
 -3.2171 1.9711 -25.2664 90.0868 -0.2508 -70.1800
 -3.2174 1.9712 -25.2667 90.0878 -0.2596 -70.1794
 -3.2173 1.9704 -25.2669 90.0917 -0.2511 -70.1700
 -3.2173 1.9702 -25.2671 90.0876 -0.2449 -70.1766
 -3.2178 1.9718 -25.2668 90.0783 -0.2592 -70.1842
 -3.2170 1.9706 -25.2663 90.0873 -0.2472 -70.1870
 -3.2175 1.9702 -25.2662 90.0824 -0.2465 -70.1797
 -3.2170 1.9706 -25.2662 90.0822 -0.2510 -70.1770
 -3.2172 1.9708 -25.2666 90.0873 -0.2484 -70.1809
 -3.2178 1.9697 -25.2667 90.1011 -0.2437 -70.1699
 -3.2173 1.9701 -25.2679 90.0822 -0.2491 -70.1748
 -3.2174 1.9704 -25.2671 90.0825 -0.2464 -70.1733
 -3.2172 1.9711 -25.2661 90.0868 -0.2573 -70.1759
 -3.2168 1.9703 -25.2658 90.0953 -0.2510 -70.1797
 -3.2174 1.9712 -25.2664 90.0924 -0.2627 -70.1683
 -3.2173 1.9711 -25.2662 90.0767 -0.2542 -70.1712
 -3.2198 1.9712 -25.2688 90.0831 -0.2576 -70.1772
 -3.2158 1.9701 -25.2661 90.0840 -0.2498 -70.1694
 -3.2145 1.9716 -25.2659 90.0948 -0.2880 -70.1668
 -3.2143 1.9694 -25.2646 90.0730 -0.2069 -70.1432
 -3.2138 1.9718 -25.2656 90.1068 -0.3250 -70.1850
 -3.2129 1.9721 -25.2642 90.1093 -0.3457 -70.2035
 -3.2137 1.9733 -25.2654 90.1126 -0.3480 -70.1863
 -3.2136 1.9718 -25.2654 90.1130 -0.3337 -70.1874
 -3.2135 1.9736 -25.2650 90.1054 -0.3486 -70.1946
 -3.2120 1.9735 -25.2659 90.0813 -0.3447 -70.1895
 -3.2121 1.9727 -25.2669 90.0364 -0.3383 -70.1560
 -3.2123 1.9745 -25.2676 90.0275 -0.3574 -70.1473
 -3.2119 1.9726 -25.2668 90.0419 -0.3407 -70.1578
 -3.2115 1.9728 -25.2672 90.0474 -0.3437 -70.1498
 -3.2124 1.9726 -25.2680 90.0478 -0.3453 -70.1432
 -3.2123 1.9739 -25.2678 90.0299 -0.3439 -70.1499
 -3.2123 1.9745 -25.2677 90.0379 -0.3573 -70.1491
 -3.2128 1.9733 -25.2679 90.0428 -0.3392 -70.1462
 -3.2123 1.9734 -25.2677 90.0302 -0.3436 -70.1433
 -3.2118 1.9726 -25.2672 90.0309 -0.3400 -70.1529
 -3.2128 1.9748 -25.2674 90.0297 -0.3623 -70.1463
 -3.2123 1.9748 -25.2687 90.0192 -0.3512 -70.1416
 -3.2128 1.9736 -25.2683 90.0293 -0.3424 -70.1440
 -3.2127 1.9734 -25.2680 90.0260 -0.3385 -70.1433
 -3.2129 1.9743 -25.2674 90.0241 -0.3518 -70.1451
 -3.2126 1.9733 -25.2672 90.0364 -0.3429 -70.1489
 -3.2116 1.9739 -25.2670 90.0358 -0.3468 -70.1495
 -3.2129 1.9745 -25.2683 90.0205 -0.3392 -70.1472
 -3.2111 1.9735 -25.2677 90.0387 -0.3439 -70.1533
 -3.2114 1.9743 -25.2682 90.0254 -0.3495 -70.1450
 -3.2104 1.9749 -25.2673 90.0222 -0.3571 -70.1569
 -3.2108 1.9728 -25.2674 90.0381 -0.3351 -70.1568
 -3.2094 1.9734 -25.2660 90.0205 -0.3509 -70.1685
 -3.2103 1.9739 -25.2665 90.0335 -0.3470 -70.1570
 -3.2110 1.9733 -25.2669 90.0222 -0.3458 -70.1680
 -3.2116 1.9735 -25.2634 89.9932 -0.3481 -70.2232
 -3.2121 1.9758 -25.2617 89.9347 -0.3624 -70.2544
 -3.2103 1.9735 -25.2642 90.0501 -0.3491 -70.1876
 -3.2104 1.9723 -25.2646 90.0753 -0.3455 -70.1662
 -3.2105 1.9733 -25.2649 90.0635 -0.3435 -70.1731
 -3.2101 1.9730 -25.2649 90.0688 -0.3476 -70.1706
 -3.2104 1.9722 -25.2657 90.0680 -0.3416 -70.1671
 -3.2101 1.9732 -25.2647 90.0674 -0.3462 -70.1724
 -3.2101 1.9746 -25.2654 90.0712 -0.3587 -70.1687
 -3.2102 1.9743 -25.2641 90.0702 -0.3604 -70.1723
 -3.2099 1.9721 -25.2641 90.0669 -0.3354 -70.1708
 -3.2107 1.9730 -25.2645 90.0561 -0.3433 -70.1740
 -3.2101 1.9738 -25.2643 90.0517 -0.3524 -70.1771
 -3.2107 1.9732 -25.2640 90.0511 -0.3494 -70.1775
 -3.2110 1.9747 -25.2652 90.0474 -0.3562 -70.1735
 -3.2101 1.9731 -25.2650 90.0587 -0.3453 -70.1716
 -3.2102 1.9736 -25.2646 90.0501 -0.3473 -70.1725
 -3.2103 1.9730 -25.2647 90.0526 -0.3469 -70.1770
 -3.2105 1.9740 -25.2646 90.0520 -0.3520 -70.1721
 -3.2111 1.9741 -25.2648 90.0511 -0.3507 -70.1746
 -3.2101 1.9736 -25.2646 90.0660 -0.3487 -70.1780
 -3.2105 1.9735 -25.2647 90.0572 -0.3506 -70.1773
 -3.2101 1.9727 -25.2651 90.0595 -0.3447 -70.1716
 -3.2099 1.9732 -25.2650 90.0517 -0.3447 -70.1743
